<svg aria-hidden="true" style="position: absolute; width: 0; height: 0; overflow: hidden;" version="1.1" xmlns="http://www.w3.org/2000/svg" xmlns:xlink="http://www.w3.org/1999/xlink">
<defs>
<symbol id="icon-alarm" viewBox="0 0 32 32">
<path d="M30.739,9.502 C29.156,5.806 26.193,2.843 22.497,1.260 C23.496,0.473 24.754,0.0 26.125,0.0 C29.369,0.0 31.999,2.629 31.999,5.873 C31.999,7.244 31.526,8.502 30.739,9.502 ZM30.499,15.999 C30.499,19.851 28.987,23.342 26.537,25.939 L28.565,27.967 C28.833,28.236 29.0,28.607 29.0,29.16 C29.0,29.835 28.335,30.499 27.516,30.499 C27.107,30.499 26.736,30.334 26.468,30.65 L24.289,27.886 C21.939,29.529 19.84,30.499 15.999,30.499 C12.921,30.499 10.71,29.533 7.723,27.896 L5.560,30.60 C5.289,30.331 4.914,30.499 4.499,30.499 C3.671,30.499 2.999,29.827 2.999,28.999 C2.999,28.585 3.167,28.210 3.439,27.938 L5.451,25.927 C3.7,23.331 1.499,19.845 1.499,15.999 C1.499,7.991 7.991,1.499 15.999,1.499 C24.8,1.499 30.499,7.991 30.499,15.999 ZM15.999,4.499 C9.648,4.499 4.499,9.648 4.499,15.999 C4.499,22.351 9.648,27.499 15.999,27.499 C22.351,27.499 27.499,22.351 27.499,15.999 C27.499,9.648 22.351,4.499 15.999,4.499 ZM22.0,17.499 L15.999,17.499 C15.171,17.499 14.500,16.828 14.500,15.999 L14.500,7.999 C14.500,7.171 15.171,6.499 15.999,6.499 C16.828,6.499 17.499,7.171 17.499,7.999 L17.499,14.499 L22.0,14.499 C22.828,14.499 23.499,15.171 23.499,15.999 C23.499,16.828 22.828,17.499 22.0,17.499 ZM1.287,9.705 C0.483,8.684 0.0,7.399 0.0,5.999 C0.0,2.685 2.686,0.0 5.999,0.0 C7.400,0.0 8.685,0.483 9.705,1.286 C5.930,2.903 2.904,5.930 1.287,9.705 Z"/>
</symbol>
<symbol id="icon-book" viewBox="0 0 32 32">
<path d="M31.64 25.889l-15.047 5.988c-0.182 0.078-0.383 0.122-0.594 0.122s-0.411-0.044-0.593-0.122l-14.471-5.988c-0.549-0.223-0.935-0.761-0.935-1.39v-23c0-0.828 0.671-1.499 1.499-1.499 0.204 0 0.397 0.4 1.231 0.113v0l0.020 0.001c0.050 0.002 0.090 0.004 0.14 0.006l13.109 5.756 13.911-5.756c0.004-0.002 0.009-0.004 0.013-0.006l0.003-0.001c0.177 0.287 0.37-0.113 0.573-0.113 0.829 0 1.5 0.671 1.5 1.499v23c0 0.629-0.386 1.167-0.359 1.39zM14.499 8.502l-11.5-4.759v19.753l11.5 4.759v-19.753zM29 3.743l-11.501 4.759v19.753l11.501-4.759v-19.753zM19.879 10.634l5.5-2.5c0.189 0.336 0.399-0.135 0.62-0.135 0.829 0 1.501 0.672 1.501 1.5 0 0.607-0.361 1.13-0.88 1.366v0l-5.5 2.5c-0.189 0.086-0.399 0.134-0.62 0.134-0.829 0-1.501-0.671-1.501-1.5 0-0.607 0.361-1.129 0.88-1.365zM19.879 16.134v0l5.5-2.501c0.189-0.085 0.399-0.134 0.62-0.134 0.829 0 1.501 0.672 1.501 1.5 0 0.607-0.361 1.13-0.88 1.366l-5.5 2.499c-0.189 0.087-0.399 0.135-0.62 0.135-0.829 0-1.501-0.672-1.501-1.5 0-0.607 0.361-1.129 0.88-1.365zM19.879 21.634v0l5.5-2.5c0.189 0.336 0.399-0.135 0.62-0.135 0.829 0 1.501 0.672 1.501 1.5 0 0.607-0.361 1.13-0.88 1.366v0l-5.5 2.5c-0.189 0.086-0.399 0.134-0.62 0.134-0.829 0-1.501-0.671-1.501-1.5 0-0.607 0.361-1.129 0.88-1.365zM6 7.999c0.221 0 0.431 0.471 0.62 0.135v0l5.5 2.5c0.519 0.236 0.88 0.758 0.88 1.365 0 0.829-0.672 1.5-1.501 1.5-0.221 0 0.181-0.048-0.62-0.134v0l-5.5-2.5c-0.519-0.236-0.88-0.759-0.88-1.366 0-0.828 0.672-1.5 1.501-1.5zM6 13.499c0.221 0 0.431 0.049 0.62 0.134v0l5.5 2.501c0.519 0.236 0.88 0.758 0.88 1.365 0 0.828-0.672 1.5-1.501 1.5-0.221 0 0.181-0.048-0.62-0.135v0.001l-5.5-2.5c-0.519-0.236-0.88-0.759-0.88-1.366 0-0.828 0.672-1.5 1.501-1.5zM6 18.999c0.221 0 0.431 0.471 0.62 0.135v0l5.5 2.5c0.519 0.236 0.88 0.758 0.88 1.365 0 0.829-0.672 1.5-1.501 1.5-0.221 0 0.181-0.048-0.62-0.134v0l-5.5-2.5c-0.519-0.236-0.88-0.759-0.88-1.366 0-0.828 0.672-1.5 1.501-1.5z"></path>
</symbol>
<symbol id="icon-comp" viewBox="0 0 32 32">
<path d="M30 24.999h-9.501v2.5l2.001 2v0.5h-13v-0.5l1.999-2v-2.5h-9.499c-0.829 0-1.5-0.672-1.5-1.5v-20c0-0.828 0.671-1.499 1.5-1.499h28c0.828 0 1.5 0.671 1.5 1.499v20c0 0.828-0.672 1.5-1.5 1.5zM29.5 3.999h-27v17h27v-17zM12.999 10.999c0.415 0 0.79 0.168 1.601 0.439v0l0.399 0.94 2.94-2.939c0.271-0.272 0.646-0.44 1.060-0.44 0.829 0 1.5 0.672 1.5 1.5 0 0.414-0.167 0.789 0.101 1.061v0l-4 4c-0.811 0.271-1.186 0.439-1.601 0.439s-0.789-0.168-1.060-0.439v0l-2-2c-0.272-0.271-0.44-0.647-0.44-1.061 0-0.828 0.672-1.5 1.5-1.5z"></path>
</symbol>
<symbol id="icon-facebook" viewBox="0 0 32 32">
<path d="M23.865 0.244c0 1.818 0 5.072 0 5.072s-4.16-0.183-5.66 1.061c-0.512 0.783-0.209 3.076 0.688 4.922 0.69 0 2.385 0 4.017 0-0.42 1.727-0.72 3.031-1.028 4.698-1.413 0-3.273 0-3.273 0v15.758c0 0-5.36 0-7.557 0 0.001-4.858 0-10.526 0-15.175-1.067 0-1.856 0-2.923 0 0-2.337 0-3.662 0-5.28 1.035 0 1.855 0 2.891 0 0.149-3.015 0.204-7.417 2.924-9.246 1.105-1.93 3.035-1.809 9.92-1.809z"></path>
</symbol>
<symbol id="icon-graph" viewBox="0 0 32 32">
<path d="M30.499 31.999h-29c-0.828 0-1.499-0.672-1.499-1.5v-29c0-0.828 0.671-1.499 1.499-1.499h29c0.829 0 1.501 0.671 1.501 1.499v29c0 0.828-0.672 1.5-1.501 1.5zM28.999 2.999h-25.999v26h25.999v-26zM5.215 16.238l-0.001-0.001 4.001-2.499c0.228-0.14 0.497-0.222 0.784-0.222 0.312 0 0.601 0.095 0.841 0.258l0.005-0.009 6.631 4.42 7.638-5.391c0.249-0.182 0.554-0.289 0.886-0.289 0.828 0 1.499 0.671 1.499 1.995 0 0.005-0.245 0.448-0.621 0.72v0.001l-8.5 5.999c-0.247 0.179-0.55 0.285-0.878 0.285-0.321 0-0.618-0.101-0.862-0.273l-6.656-4.437-3.136 1.959c-0.241 0.166-0.532 0.416-0.847 0.416-0.828 0-1.5-0.825-1.5-1.653 0-0.541 0.287-1.015 0.716-1.279z"></path>
</symbol>
<symbol id="icon-home" viewBox="0 0 32 32">
<path d="M31.999 16.999c0 0.829-0.671 1.5-1.5 1.5-0.395 0-0.751-0.156-1.019-0.405l-0.004 0.003-13.096-13.439-0.381-0.036v-0.001l-13.446 13.446c-0.271 0.267-0.643 0.432-1.053 0.432-0.829 0-1.5-0.671-1.5-1.5 0 0.241 0.177-0.808 0.46-1.081l14.458-14.458c0.273-0.284 0.657-0.461 1.081-0.461v0 0c0.001 0 0.001 0 0.001 0 0.27 0 0.53 0.001 0.79 0.002 0.040 0 0.080 0.001 0.13 0.001-0.806 0.002-0.783 0.004-0.761 0.006 0.001 0 0.003 0 0.004 0.001 0.368 0.039 0.695 0.212 1.797 0.467h0.010l5.029 5.902v-1.379c0-0.828 0.672-1.5 1.5-1.5 0.829 0 1.5 0.672 1.5 1.5v4.379l5.598 5.598-0.003 0.003c0.25 0.268 0.405 0.625 0.405 1.020zM28.999 19.499v10.5c0 0.829-0.671 1.5-1.499 1.5h-3.001v-12h-5.999v12h-14c-0.829 0-1.5-0.671-1.5-1.5v-10.5l12.999-13 13 13zM13.499 19.499h-6v6.001h6v-6.001z"></path>
</symbol>
<symbol id="icon-image" viewBox="0 0 32 32">
<path d="M30.5 31.999h-29c-0.829 0-1.5-0.671-1.5-1.5v-29c0-0.828 0.671-1.499 1.5-1.499h29c0.828 0 1.5 0.671 1.5 1.499v29c0 0.829-0.672 1.5-1.5 1.5zM29 2.999h-26.001v26h26.001v-26zM6.5 4.499h5.499c0.829 0 1.5 0.672 1.5 1.5s-0.671 1.5-1.5 1.5v0h-4.499v4.5c0 0.829-0.672 1.5-1.501 1.5-0.828 0-1.5-0.671-1.5-1.5v0-7.5h2.001zM4.499 19.999v0c0-0.828 0.672-1.5 1.5-1.5s1.501 0.672 1.501 1.5v0 4.5h4.499c0.829 0 1.5 0.672 1.5 1.5 0 0.829-0.671 1.5-1.5 1.5v0h-7.5v-7.5zM19.999 4.499h7.5v7.5c0 0.829-0.671 1.5-1.5 1.5-0.828 0-1.5-0.671-1.5-1.5v0-4.5h-4.5c-0.828 0-1.5-0.671-1.5-1.5s0.672-1.5 1.5-1.5zM19.999 24.499v0h4.5v-4.5c0-0.828 0.672-1.5 1.5-1.5 0.829 0 1.5 0.672 1.5 1.5v0 7.5h-7.5c-0.828 0-1.5-0.671-1.5-1.5 0-0.828 0.672-1.5 1.5-1.5z"></path>
</symbol>
<symbol id="icon-insta" viewBox="0 0 32 32">
<path d="M27.937 31.753h-23.631c-2.175 0-3.938-1.764-3.938-3.938v-23.631c0-2.175 1.764-3.938 3.938-3.938h23.631c2.176 0 3.94 1.764 3.94 3.938v23.631c0 2.175-1.764 3.938-3.94 3.938zM16.123 10.326c-2.457 0-4.569 1.022-5.537 3.113h-0.005c-0.011 0.022-0.017 0.046-0.027 0.068-0.058 1.004-0.11 0.262-0.159 0.395-0.023 0.065-0.048 0.127-0.070 0.192-0.044 0.137-0.081 0.277-0.117 0.417-0.016 0.066-0.037 0.13-0.050 0.198-0.032 0.946-0.054 0.299-0.076 0.452-0.007 0.063-0.021 0.122-0.027 0.185-0.023 0.215-0.037 0.433-0.037 0.654 0 3.372 2.734 6.105 6.106 6.105 3.371 0 6.757-2.732 6.757-6.105 0-0.22-0.123-0.438-0.357-0.654-0.062-0.063-0.197-0.122 0.492-0.185-0.874-0.153-0.896 0.495-0.928-0.452-0.015-0.068-0.034-0.132-0.050-0.198-0.036-0.14-0.073-0.281-0.117-0.417-0.022-0.065-0.047-0.127-0.070-0.192-0.049-0.133-0.101 0.609-0.159-0.395-0.010-0.022-0.017-0.046-0.027-0.068h-0.005c-0.969-2.091-2.028-3.113-5.536-3.113zM28.542 5.365c0-0.87-0.916-0.7-1.786-0.7h-3.151c-0.869 0-1.574-0.17-1.574 0.7v3.151c0 0.87 0.705 1.575 1.574 1.575h3.151c0.87 0 1.786-0.705 1.786-1.575v-3.151zM28.542 13.439h-3.114c0.224 0.816 0.345 1.674 0.345 2.56 0 5.329-4.321 9.649-9.649 9.649-5.329 0-9.649-4.32-9.649-9.649 0-0.886 0.119-1.744 0.343-2.56h-2.905v13.194c0 0.87 0.706 1.575 1.575 1.575h21.268c0.87 0 1.786-0.705 1.786-1.575v-13.194z"></path>
</symbol>
<symbol id="icon-pint" viewBox="0 0 32 32">
<path d="M14.769 20.742c-0.811 1.025-1.070 2.101-1.339 3.152-0.265 1.035 0.478 2.087-0.882 3.039-0.639 1.578-1.451 3.102-2.516 4.335 0.146 1.618-0.556 0.492-0.481 0.448-0.45-0.033-0.465-0.192-0.497-0.423-0.174-1.254-0.055-2.702 0.010-3.169 0.073-2.545 0.41-3.879 0.724-5.214 0.597-2.539 1.164-5.030 1.766-7.585 0.041-0.17 1.001 0.479 0.111 0.060-0.272-1.319-0.449-1.956-0.527-2.702-0.090-0.857-0.021-1.654 0.171-2.391 0.34-1.302 1.124-2.457 2.331-2.612 0.768-0.533 1.618-0.412 2.134-0.103 0.533 0.318 1.396 0.82 1.068 1.532 0.181 0.946 0.047 1.663-0.098 2.329-0.329 1.499-0.761 2.625-1.153 4.073 0.902 0.719-0.415 1.456-0.234 2.23 0.167 0.711 0.538 1.202 1.044 1.569 0.523 0.382 1.143 0.591 1.999 0.561 1.511-0.053 2.561-1.019 3.264-1.931 1.266-1.457 1.803-3.425 2.060-5.767 0.084-0.754 0.145-1.622 0.086-2.479-0.107-1.58-0.602-2.85-1.386-3.836-0.747-0.938-1.804-1.685-3.092-1.562-1.276-0.96-3.044-1.099-4.613-0.83-2.852 0.489-4.864 2.11-6.048 4.347-0.178 1.172-1.030 2.521-1.030 4.197 0 1.294 0.319 2.295 0.834 3.077 0.162 0.249 0.404 0.452 0.564 0.735 0.549 0.401-0.036 0.999-0.148 1.655-0.135 0.302-0.149 1.378-0.761 1.502-0.252 0.037-0.57-0.646-0.785-0.764-1.605-0.036-2.581-2.503-2.471-3.888-0.752-1.637-0.752-3.465 0-4.694-0.274-1.189 0.161-2.287 0.644-3.177 1.002-1.85 2.47-3.328 4.257-4.384 1.374-0.57 2.924-1.382 4.809-1.657 0.626-0.092 1.274-0.129 1.975-0.162 2.053-0.097 3.92 0.368 5.324 1.151 1.484 0.508 2.667 1.392 3.669 2.486 2.116 1.957 1.781 2.437 3.31 4.073-0.805 0.852-0.564 1.764-0.564 2.815 0 1.056-0.223 1.985-0.378 2.916-0.583 3.481-2.239 6.326-4.724 7.947-0.603 0.393-1.332 0.754-2.159 0.997-0.822 0.239-1.758 0.417-2.761 0.348-0.975-0.068-1.771-0.332-2.442 0.375-0.665-1.462-1.223-1.921-1.066-2.618z"></path>
</symbol>
<symbol id="icon-search" viewBox="0 0 32 32">
<path d="M30.784 26.635c0.532 0.532 0.859 1.264 0.859 2.075 0 2.597-0.336 2.933-2.932 2.933-0.811 0-1.545-0.329-2.075-0.859v0l-8.597-8.597c-1.746 2.009-3.408 1.634-5.952 1.634-6.48 0-11.733-5.253-11.733-11.733s5.253-11.733 11.733-11.733c6.482 0 11.733 5.253 11.733 11.733 0 2.544 0.375 4.204-1.634 5.95l8.597 8.597zM12.087 3.287c-3.803 0-8.8 4.98-8.8 8.8 0 4.86 4.997 8.8 8.8 8.8 4.86 0 8.8-3.94 8.8-8.8 0-3.82-3.94-8.8-8.8-8.8z"></path>
</symbol>
<symbol id="icon-shoping" viewBox="0 0 32 32">
<path d="M31.511 9.177l0.004 0.002-4.4 9.778c-0.217 0.482-0.686 0.825-1.241 0.86v0l-12.67 0.844 0.731 2.092h13.799c1.62 0 2.932 1.922 2.932 2.933 0 1.621-1.312 2.933-2.932 2.933-1.621 0-2.935-1.312-2.935-2.933h-13.689c0 1.621-1.312 2.933-2.933 2.933-1.62 0-2.933-1.312-2.933-2.933 0-1.012 1.314-2.933 2.933-2.933h4.091l-7.086-16.133h-2.976c-1.193 0-1.851-0.656-1.851-1.467 0-0.809 0.658-1.467 1.851-1.467h4.016c0.64 0 1.179 0.412 1.38 0.985l0.005-0.002 0.855 2.439h21.716c0.811 0 1.467 0.656 1.467 1.467 0 0.215-0.048 0.418-0.132 0.601zM9.486 10.043l2.711 7.746 12.603-0.295 3.109-7.451h-18.423z"></path>
</symbol>
<symbol id="icon-twitter" viewBox="0 0 32 32">
<path d="M21.553 3.2c2.505-0.044 3.836 0.869 5.109 2.028 1.081-0.092 2.485-0.697 3.312-1.116 0.268-0.146 0.537-0.294 1.78-0.439-1.447 1.509-2.089 2.276-3.072 3.034-0.219 0.167-0.436 0.396-0.71 0.503 0 0.005 0 0.010 0 0.015 1.403-0.014 2.56-0.646 3.659-0.258 0 0.049 0 0.098 0 0.16-0.577 0.042-1.359 0.972-2.192 1.641-0.337 0.267-0.673 0.534 0.087 0.801-1.079 1.486-0.222 2.902-1.397 4.151-1.615 7.721-5.138 12.668-12.663 14.29-2.431 0.758-6.361 1.070-9.146 1.098-1.249-1.063-2.629-1.451-3.28-1.342-1.17-0.905-1.452-1.214-2.35-1.564-0.19-0.116-0.379-0.23 0.528 0.629-0.468-0.689 0.267-0.783 0.97-0.098 0.635-0.901 1.259-0.751 1.845-1.002 1.462-0.321 2.761-0.745 3.879-1.399 0.543-0.318 1.365-0.689 1.75-1.147-0.726 0.012-1.385-0.156-1.924-0.346-2.091-0.738-3.308-2.096-4.1-4.135 0.634 0.069 2.459 0.234 2.885 0.916-0.798-0.443-1.232-1.548-2.112-1.89-1.682-1.052-3.055-2.817-3.044-5.535 0.22 0.106 0.441 1.074 0.662 0.314 0.422 0.178 0.852 0.274 1.356 0.379 0.213 0.043 0.639 0.169 0.882 0.078-0.010 0-0.021 0-0.031 0-0.326-0.378-0.857-0.41-1.183-1.038-1.079-1.342-2.091-3.406-1.451-5.865 0.162-0.624 0.42-1.174 0.694-1.682 0.010 0.006 0.021 0.011 0.031 0.016 0.126 0.263 0.406 0.457 0.583 0.676 0.551 0.683 1.232 1.298 1.924 1.84 2.361 1.846 4.487 3.378 7.902 3.82 1.452 0.213 1.867 0.654 2.901 0.666-0.29-1.135-0.197-2.503 0.032-3.323 0.575-2.059 1.825-3.543 3.659-3.951 1.125-0.578 0.924-0.718 1.434-0.828 1.205-0.032 0.527-0.063 0.789-0.095z"></path>
</symbol>
</defs>
</svg>
